<mxfile host="app.diagrams.net" modified="2024-05-14T01:45:37.721Z" agent="Mozilla/5.0 (Windows NT 10.0; Win64; x64) AppleWebKit/537.36 (KHTML, like Gecko) Chrome/124.0.0.0 Safari/537.36" etag="asmgJDPFHKXv0qLkF0C_" version="24.4.0" type="github">
  <diagram name="Page-1" id="J73xEGvbeloBa2jMlH-o">
    <mxGraphModel dx="1909" dy="949" grid="1" gridSize="10" guides="1" tooltips="1" connect="1" arrows="1" fold="1" page="1" pageScale="1" pageWidth="850" pageHeight="1100" math="0" shadow="0">
      <root>
        <mxCell id="0" />
        <mxCell id="1" parent="0" />
        <mxCell id="0GhkC7T9ID0tLAnY2a1P-24" value="" style="rounded=0;whiteSpace=wrap;html=1;fillColor=#FBFFD9;" vertex="1" parent="1">
          <mxGeometry x="300" y="300" width="150" height="360" as="geometry" />
        </mxCell>
        <mxCell id="qgxbI171Fb-kcJdR1tKk-2" style="edgeStyle=orthogonalEdgeStyle;rounded=0;orthogonalLoop=1;jettySize=auto;html=1;" parent="1" source="qgxbI171Fb-kcJdR1tKk-1" edge="1">
          <mxGeometry relative="1" as="geometry">
            <mxPoint x="370" y="350" as="targetPoint" />
          </mxGeometry>
        </mxCell>
        <mxCell id="qgxbI171Fb-kcJdR1tKk-1" value="Engine" style="rounded=1;whiteSpace=wrap;html=1;fillColor=#8FBAE0;fontSize=15;" parent="1" vertex="1">
          <mxGeometry x="320" y="250" width="100" height="40" as="geometry" />
        </mxCell>
        <mxCell id="0GhkC7T9ID0tLAnY2a1P-1" style="edgeStyle=orthogonalEdgeStyle;rounded=0;orthogonalLoop=1;jettySize=auto;html=1;exitX=0.5;exitY=1;exitDx=0;exitDy=0;" edge="1" parent="1" source="qgxbI171Fb-kcJdR1tKk-3">
          <mxGeometry relative="1" as="geometry">
            <mxPoint x="370" y="440" as="targetPoint" />
          </mxGeometry>
        </mxCell>
        <mxCell id="0GhkC7T9ID0tLAnY2a1P-16" style="edgeStyle=orthogonalEdgeStyle;rounded=0;orthogonalLoop=1;jettySize=auto;html=1;exitX=1;exitY=0.5;exitDx=0;exitDy=0;entryX=0;entryY=0.5;entryDx=0;entryDy=0;" edge="1" parent="1" source="qgxbI171Fb-kcJdR1tKk-3" target="qgxbI171Fb-kcJdR1tKk-9">
          <mxGeometry relative="1" as="geometry" />
        </mxCell>
        <mxCell id="qgxbI171Fb-kcJdR1tKk-3" value="Is workflow available?" style="rhombus;whiteSpace=wrap;html=1;" parent="1" vertex="1">
          <mxGeometry x="330" y="320" width="80" height="80" as="geometry" />
        </mxCell>
        <mxCell id="qgxbI171Fb-kcJdR1tKk-5" style="edgeStyle=orthogonalEdgeStyle;rounded=0;orthogonalLoop=1;jettySize=auto;html=1;exitX=0.5;exitY=1;exitDx=0;exitDy=0;entryX=0.5;entryY=0;entryDx=0;entryDy=0;" parent="1" source="qgxbI171Fb-kcJdR1tKk-6" target="qgxbI171Fb-kcJdR1tKk-1" edge="1">
          <mxGeometry relative="1" as="geometry" />
        </mxCell>
        <mxCell id="qgxbI171Fb-kcJdR1tKk-4" value="Start Workflow" style="rounded=1;whiteSpace=wrap;html=1;arcSize=50;fillColor=#CCCCCC;fontSize=15;" parent="1" vertex="1">
          <mxGeometry x="320" y="90" width="100" height="40" as="geometry" />
        </mxCell>
        <mxCell id="qgxbI171Fb-kcJdR1tKk-7" value="" style="edgeStyle=orthogonalEdgeStyle;rounded=0;orthogonalLoop=1;jettySize=auto;html=1;exitX=0.5;exitY=1;exitDx=0;exitDy=0;entryX=0.5;entryY=0;entryDx=0;entryDy=0;" parent="1" source="qgxbI171Fb-kcJdR1tKk-4" target="qgxbI171Fb-kcJdR1tKk-6" edge="1">
          <mxGeometry relative="1" as="geometry">
            <mxPoint x="370" y="130" as="sourcePoint" />
            <mxPoint x="370" y="270" as="targetPoint" />
          </mxGeometry>
        </mxCell>
        <mxCell id="qgxbI171Fb-kcJdR1tKk-6" value="Get Workflow Config" style="rounded=0;whiteSpace=wrap;html=1;" parent="1" vertex="1">
          <mxGeometry x="310" y="170" width="120" height="40" as="geometry" />
        </mxCell>
        <mxCell id="qgxbI171Fb-kcJdR1tKk-9" value="END" style="rounded=1;whiteSpace=wrap;html=1;arcSize=50;fillColor=#FF4D4D;fontColor=#f3f1f1;" parent="1" vertex="1">
          <mxGeometry x="780" y="340" width="100" height="40" as="geometry" />
        </mxCell>
        <mxCell id="0GhkC7T9ID0tLAnY2a1P-7" value="" style="edgeStyle=orthogonalEdgeStyle;rounded=0;orthogonalLoop=1;jettySize=auto;html=1;" edge="1" parent="1" source="0GhkC7T9ID0tLAnY2a1P-3" target="0GhkC7T9ID0tLAnY2a1P-6">
          <mxGeometry relative="1" as="geometry" />
        </mxCell>
        <mxCell id="0GhkC7T9ID0tLAnY2a1P-8" style="edgeStyle=orthogonalEdgeStyle;rounded=0;orthogonalLoop=1;jettySize=auto;html=1;exitX=1;exitY=0.5;exitDx=0;exitDy=0;" edge="1" parent="1" source="0GhkC7T9ID0tLAnY2a1P-3">
          <mxGeometry relative="1" as="geometry">
            <mxPoint x="370" y="420" as="targetPoint" />
          </mxGeometry>
        </mxCell>
        <mxCell id="0GhkC7T9ID0tLAnY2a1P-9" value="Next Step" style="edgeLabel;html=1;align=center;verticalAlign=middle;resizable=0;points=[];fontSize=14;" vertex="1" connectable="0" parent="0GhkC7T9ID0tLAnY2a1P-8">
          <mxGeometry x="-0.1482" y="-1" relative="1" as="geometry">
            <mxPoint as="offset" />
          </mxGeometry>
        </mxCell>
        <mxCell id="0GhkC7T9ID0tLAnY2a1P-3" value="Check Workflow Step Executed?" style="rhombus;whiteSpace=wrap;html=1;" vertex="1" parent="1">
          <mxGeometry x="315" y="440" width="110" height="110" as="geometry" />
        </mxCell>
        <mxCell id="0GhkC7T9ID0tLAnY2a1P-12" value="" style="edgeStyle=orthogonalEdgeStyle;rounded=0;orthogonalLoop=1;jettySize=auto;html=1;" edge="1" parent="1" source="0GhkC7T9ID0tLAnY2a1P-6" target="0GhkC7T9ID0tLAnY2a1P-11">
          <mxGeometry relative="1" as="geometry" />
        </mxCell>
        <mxCell id="0GhkC7T9ID0tLAnY2a1P-6" value="Execute" style="whiteSpace=wrap;html=1;" vertex="1" parent="1">
          <mxGeometry x="325" y="590" width="90" height="40" as="geometry" />
        </mxCell>
        <mxCell id="0GhkC7T9ID0tLAnY2a1P-13" style="edgeStyle=orthogonalEdgeStyle;rounded=0;orthogonalLoop=1;jettySize=auto;html=1;exitX=0.5;exitY=0;exitDx=0;exitDy=0;" edge="1" parent="1" source="0GhkC7T9ID0tLAnY2a1P-11">
          <mxGeometry relative="1" as="geometry">
            <mxPoint x="370" y="420" as="targetPoint" />
            <Array as="points">
              <mxPoint x="540" y="420" />
              <mxPoint x="501" y="420" />
            </Array>
          </mxGeometry>
        </mxCell>
        <mxCell id="0GhkC7T9ID0tLAnY2a1P-20" value="Store Data in WorkflowObject" style="edgeLabel;html=1;align=center;verticalAlign=middle;resizable=0;points=[];fontSize=14;" vertex="1" connectable="0" parent="0GhkC7T9ID0tLAnY2a1P-13">
          <mxGeometry x="-0.4663" y="-2" relative="1" as="geometry">
            <mxPoint x="18" y="26" as="offset" />
          </mxGeometry>
        </mxCell>
        <mxCell id="0GhkC7T9ID0tLAnY2a1P-15" value="" style="edgeStyle=orthogonalEdgeStyle;rounded=0;orthogonalLoop=1;jettySize=auto;html=1;" edge="1" parent="1" source="0GhkC7T9ID0tLAnY2a1P-11" target="0GhkC7T9ID0tLAnY2a1P-14">
          <mxGeometry relative="1" as="geometry" />
        </mxCell>
        <mxCell id="0GhkC7T9ID0tLAnY2a1P-18" style="edgeStyle=orthogonalEdgeStyle;rounded=0;orthogonalLoop=1;jettySize=auto;html=1;exitX=0.5;exitY=1;exitDx=0;exitDy=0;" edge="1" parent="1" source="0GhkC7T9ID0tLAnY2a1P-11">
          <mxGeometry relative="1" as="geometry">
            <mxPoint x="370" y="230" as="targetPoint" />
            <Array as="points">
              <mxPoint x="540" y="750" />
              <mxPoint x="140" y="750" />
              <mxPoint x="140" y="230" />
            </Array>
          </mxGeometry>
        </mxCell>
        <mxCell id="0GhkC7T9ID0tLAnY2a1P-19" value="Spring Retry Mechanism" style="edgeLabel;html=1;align=center;verticalAlign=middle;resizable=0;points=[];fontSize=15;" vertex="1" connectable="0" parent="0GhkC7T9ID0tLAnY2a1P-18">
          <mxGeometry x="0.2151" y="-1" relative="1" as="geometry">
            <mxPoint as="offset" />
          </mxGeometry>
        </mxCell>
        <mxCell id="0GhkC7T9ID0tLAnY2a1P-31" value="YES" style="edgeLabel;html=1;align=center;verticalAlign=middle;resizable=0;points=[];" vertex="1" connectable="0" parent="0GhkC7T9ID0tLAnY2a1P-18">
          <mxGeometry x="0.0859" y="1" relative="1" as="geometry">
            <mxPoint as="offset" />
          </mxGeometry>
        </mxCell>
        <mxCell id="0GhkC7T9ID0tLAnY2a1P-11" value="Successful ?" style="rhombus;whiteSpace=wrap;html=1;fillColor=#8FBAE0;" vertex="1" parent="1">
          <mxGeometry x="500" y="570" width="80" height="80" as="geometry" />
        </mxCell>
        <mxCell id="0GhkC7T9ID0tLAnY2a1P-22" style="edgeStyle=orthogonalEdgeStyle;rounded=0;orthogonalLoop=1;jettySize=auto;html=1;exitX=1;exitY=0.5;exitDx=0;exitDy=0;entryX=0.5;entryY=1;entryDx=0;entryDy=0;" edge="1" parent="1" source="0GhkC7T9ID0tLAnY2a1P-14" target="qgxbI171Fb-kcJdR1tKk-9">
          <mxGeometry relative="1" as="geometry" />
        </mxCell>
        <mxCell id="0GhkC7T9ID0tLAnY2a1P-14" value="All Steps Completed?" style="rhombus;whiteSpace=wrap;html=1;fillColor=#8FBAE0;" vertex="1" parent="1">
          <mxGeometry x="640" y="565" width="90" height="90" as="geometry" />
        </mxCell>
        <mxCell id="0GhkC7T9ID0tLAnY2a1P-21" value="Store Data in WorkflowObject" style="edgeLabel;html=1;align=center;verticalAlign=middle;resizable=0;points=[];fontSize=15;" vertex="1" connectable="0" parent="1">
          <mxGeometry x="350.00367919771793" y="749.9984379762828" as="geometry">
            <mxPoint x="12" y="1" as="offset" />
          </mxGeometry>
        </mxCell>
        <mxCell id="0GhkC7T9ID0tLAnY2a1P-26" value="Strategy Design Pattern" style="text;html=1;align=center;verticalAlign=middle;resizable=0;points=[];autosize=1;strokeColor=none;fillColor=none;fontSize=16;" vertex="1" parent="1">
          <mxGeometry x="280" y="655" width="190" height="30" as="geometry" />
        </mxCell>
        <mxCell id="0GhkC7T9ID0tLAnY2a1P-34" value="" style="edgeStyle=orthogonalEdgeStyle;rounded=0;orthogonalLoop=1;jettySize=auto;html=1;" edge="1" parent="1" source="0GhkC7T9ID0tLAnY2a1P-30" target="0GhkC7T9ID0tLAnY2a1P-33">
          <mxGeometry relative="1" as="geometry" />
        </mxCell>
        <mxCell id="0GhkC7T9ID0tLAnY2a1P-36" value="NO" style="edgeLabel;html=1;align=center;verticalAlign=middle;resizable=0;points=[];" vertex="1" connectable="0" parent="0GhkC7T9ID0tLAnY2a1P-34">
          <mxGeometry x="-0.6853" y="3" relative="1" as="geometry">
            <mxPoint x="27" y="-3" as="offset" />
          </mxGeometry>
        </mxCell>
        <mxCell id="0GhkC7T9ID0tLAnY2a1P-30" value="Retries Left?" style="rhombus;whiteSpace=wrap;html=1;" vertex="1" parent="1">
          <mxGeometry x="100" y="600" width="80" height="80" as="geometry" />
        </mxCell>
        <mxCell id="0GhkC7T9ID0tLAnY2a1P-38" value="" style="edgeStyle=orthogonalEdgeStyle;rounded=0;orthogonalLoop=1;jettySize=auto;html=1;" edge="1" parent="1" source="0GhkC7T9ID0tLAnY2a1P-33" target="0GhkC7T9ID0tLAnY2a1P-37">
          <mxGeometry relative="1" as="geometry" />
        </mxCell>
        <mxCell id="0GhkC7T9ID0tLAnY2a1P-33" value="Send to DLQ?" style="rhombus;whiteSpace=wrap;html=1;fillColor=#9AC7BF;" vertex="1" parent="1">
          <mxGeometry y="880" width="80" height="80" as="geometry" />
        </mxCell>
        <mxCell id="0GhkC7T9ID0tLAnY2a1P-40" value="" style="edgeStyle=orthogonalEdgeStyle;rounded=0;orthogonalLoop=1;jettySize=auto;html=1;" edge="1" parent="1" source="0GhkC7T9ID0tLAnY2a1P-37" target="0GhkC7T9ID0tLAnY2a1P-39">
          <mxGeometry relative="1" as="geometry" />
        </mxCell>
        <mxCell id="0GhkC7T9ID0tLAnY2a1P-37" value="Prepare Data and Store in DLQ DB" style="whiteSpace=wrap;html=1;" vertex="1" parent="1">
          <mxGeometry x="140" y="890" width="120" height="60" as="geometry" />
        </mxCell>
        <mxCell id="0GhkC7T9ID0tLAnY2a1P-41" style="edgeStyle=orthogonalEdgeStyle;rounded=0;orthogonalLoop=1;jettySize=auto;html=1;exitX=1;exitY=0.5;exitDx=0;exitDy=0;entryX=0.5;entryY=1;entryDx=0;entryDy=0;" edge="1" parent="1" source="0GhkC7T9ID0tLAnY2a1P-39" target="qgxbI171Fb-kcJdR1tKk-9">
          <mxGeometry relative="1" as="geometry" />
        </mxCell>
        <mxCell id="0GhkC7T9ID0tLAnY2a1P-39" value="Feed DB to DLQ Dashboard for further retry" style="whiteSpace=wrap;html=1;" vertex="1" parent="1">
          <mxGeometry x="340" y="890" width="130" height="60" as="geometry" />
        </mxCell>
      </root>
    </mxGraphModel>
  </diagram>
</mxfile>
